<svg xmlns="http://www.w3.org/2000/svg" width="9.401" height="11" viewBox="0 0 9.401 11">
    <defs>
        <style>
            .cls-1{fill:#999}
        </style>
    </defs>
    <path id="Arrow" d="M7.914 11a.746.746 0 0 0 .746-.746V3.871c0-.687.383-.84.856-.342l1.752 1.845A.78.78 0 1 0 12.4 4.3L8.547.243A.778.778 0 0 0 7.988 0a.786.786 0 0 0-.562.233L3.438 4.292A.78.78 0 1 0 4.55 5.385L6.3 3.607c.481-.49.872-.33.872.356v6.291a.746.746 0 0 0 .742.746z" class="cls-1" transform="rotate(180 6.308 5.5)"/>
</svg>
