<svg xmlns="http://www.w3.org/2000/svg" width="15" height="19" viewBox="0 0 15 19">
    <defs>
        <style>
            .cls-1,.cls-2{fill:#fff !important}.cls-1{font-size:7px;font-family:OpenSans-Semibold,Open Sans;font-weight:600}
        </style>
    </defs>
    <g id="hat" transform="translate(-158 -293)">
        <text id="HAT-2" fill="fff" class="cls-1" data-name="HAT" transform="translate(159 310)">
            <tspan x="0" y="0">HAT</tspan>
        </text>
        <g id="hat-3" data-name="hat" transform="translate(158 293)">
            <path id="Path_25" d="M83.269 88.49c3.826 0 4.592-1.516 4.586-1.518-.555-6.361-3.92-2.779-4.586-2.779s-4.032-3.581-4.586 2.779c-.006.002.76 1.518 4.586 1.518z" class="cls-2" data-name="Path 25" transform="translate(-76.269 -83.188)"/>
            <path id="Path_26" d="M12.34 223.72a3.118 3.118 0 0 1-1.549 1.267A9.523 9.523 0 0 1 7 225.7a9.523 9.523 0 0 1-3.791-.709 3.118 3.118 0 0 1-1.549-1.271c-1.035.458-1.66 1.052-1.66 1.7 0 1.452 3.134 2.629 7 2.629s7-1.177 7-2.629c0-.648-.625-1.242-1.66-1.7z" class="cls-2" data-name="Path 26" transform="translate(0 -219.649)"/>
        </g>
    </g>
</svg>
